<?xml version="1.0" encoding="UTF-8"?>
<svg id="Layer_1" data-name="Layer 1" xmlns="http://www.w3.org/2000/svg" viewBox="0 0 10.09 11.47">
  <defs>
    <style>
      .cls-1 {
        fill: #215c98;
      }
    </style>
  </defs>
  <path class="cls-1" d="M2.89,5.53l2.38-3.55c-.54.02-1.11.1-1.71.23s-1.11.28-1.54.43-.81.3-1.14.44-.58.24-.72.29c-.04,0-.07-.01-.11-.04s-.05-.06-.05-.09c0-.04.12-.3.36-.76s.53-.97.85-1.5c1.82-.65,3.42-.97,4.82-.97,1.61,0,2.73.34,3.35,1.03.22.24.4.53.52.88s.18.7.18,1.04c0,.78-.16,1.49-.49,2.12s-.79,1.19-1.39,1.66-1.31.83-2.13,1.07-1.71.37-2.68.37c-.17,0-.52-.03-1.05-.09l-.7,1.28c.07.11.11.2.11.27,0,.16-.04.3-.11.41-.1.16-.24.36-.41.62s-.29.42-.35.51-.13.16-.2.22-.15.09-.22.09c-.15,0-.25-.05-.29-.14s-.06-.22-.06-.38c0-.23.11-.59.34-1.09s.57-1.16,1.03-1.98c-.24-.09-.43-.22-.57-.37s-.2-.3-.2-.44c0-.32.18-.62.55-.9s.91-.49,1.64-.65ZM3.7,5.74l-.44.75c.2.01.37.02.53.03s.28.02.39.02c.91,0,1.7-.12,2.37-.37s1.2-.55,1.59-.91.68-.72.85-1.09.27-.67.27-.91c0-.34-.14-.6-.41-.8s-.66-.32-1.17-.39-1.16-.11-1.96-.11c.01.06.02.13.02.21,0,.27-.14.63-.43,1.07l-1.36,2.13,1.02-.12c.08,0,.12.04.12.12,0,.07-.07.11-.2.14l-1.18.23Z"/>
</svg>